<svg id="Layer_1" data-name="Layer 1" xmlns="http://www.w3.org/2000/svg" viewBox="0 0 554.39 219.93"><defs><style>.cls-1,.cls-2,.cls-4{fill:#231f20;}.cls-1{fill-rule:evenodd;}.cls-2,.cls-4{stroke:#fff;}.cls-2,.cls-3,.cls-4{stroke-linejoin:round;}.cls-2{stroke-width:0.58px;}.cls-3{fill:none;stroke:#231f20;stroke-width:6.46px;}.cls-4{stroke-width:0.35px;}</style></defs><g id="logo-with-box-white-"><path class="cls-1" d="M698,194.6a6.71,6.71,0,0,0-6.63-6.76H150.24a6.71,6.71,0,0,0-6.64,6.76V401a6.72,6.72,0,0,0,6.64,6.76H691.36A6.72,6.72,0,0,0,698,401Zm-6.63,0H150.24V401H691.36Z" transform="translate(-143.6 -187.84)"/><g id="logo-text"><path class="cls-1" d="M268.93,216.12a6.49,6.49,0,0,0-6.46-6.46h-93a6.5,6.5,0,0,0-6.46,6.46V258.7a6.5,6.5,0,0,0,6.46,6.46h93a6.49,6.49,0,0,0,6.46-6.46V216.12Zm-6.46,0h-93V258.7h93V216.12Z" transform="translate(-143.6 -187.84)"/><path class="cls-1" d="M679,331.27a6.39,6.39,0,0,0-6.42-6.41H568a6.38,6.38,0,0,0-6.41,6.41v47.89a6.39,6.39,0,0,0,6.41,6.42H672.58a6.4,6.4,0,0,0,6.42-6.42Zm-6.56,0H567.82v47.89H672.44Z" transform="translate(-143.6 -187.84)"/><path class="cls-2" d="M188.56,248.46v-21H185c-.7,0-1.1.5-1.1,1.4v2.2l-4.7-.3v-7.9h24.2v7.9l-4.7.3v-2.2a2.68,2.68,0,0,0-.2-1.1,1.44,1.44,0,0,0-1.1-.3h-3.1v22.1l3.7.1v3.9H185v-3.7l2.5-.1A1.22,1.22,0,0,0,188.56,248.46Z" transform="translate(-143.6 -187.84)"/><path class="cls-2" d="M208.46,248.46v-22.6a1.33,1.33,0,0,0-.3-1,1.22,1.22,0,0,0-.9-.3l-1.6-.1v-3.8h8.2v12.4a7.8,7.8,0,0,1,6.8-3.4,7.17,7.17,0,0,1,5.4,2c1.3,1.3,1.9,3.4,1.9,6v12.1l2.6.1v3.7h-11v-3.5l1.5-.1a1.88,1.88,0,0,0,1-.4,1.61,1.61,0,0,0,.3-1.1v-9.6a7.53,7.53,0,0,0-.8-3.7c-.5-.9-1.5-1.3-3-1.3a4.67,4.67,0,0,0-3.5,1.4,4.3,4.3,0,0,0-1.1,3.3v11.2l2.6.1v3.7h-11v-3.5l1.5-.1a1.88,1.88,0,0,0,1-.4A1.25,1.25,0,0,0,208.46,248.46Z" transform="translate(-143.6 -187.84)"/><path class="cls-2" d="M245,229.66a8.6,8.6,0,0,1,5.5,1.7,5.6,5.6,0,0,1,2,4.7,6.87,6.87,0,0,1-.9,3.6,7.28,7.28,0,0,1-2.2,2.4,9.78,9.78,0,0,1-3.1,1.4,25.27,25.27,0,0,1-7,.9,6.5,6.5,0,0,0,1.5,4,5.47,5.47,0,0,0,4.3,1.5,10.12,10.12,0,0,0,5.7-2l1.8,3.7a10.67,10.67,0,0,1-3.1,1.7,13.11,13.11,0,0,1-5,.9c-3.8,0-6.5-1-8.3-3.1s-2.6-4.9-2.6-8.6a14.33,14.33,0,0,1,3-9.2A10.33,10.33,0,0,1,245,229.66Zm-2.1,10.6a7.27,7.27,0,0,0,3.1-1.4,2.87,2.87,0,0,0,1.4-2.5c0-1.9-.9-2.8-2.8-2.8a4.52,4.52,0,0,0-4,2.1,9.76,9.76,0,0,0-1.5,4.9A21.69,21.69,0,0,0,242.86,240.26Z" transform="translate(-143.6 -187.84)"/><path class="cls-3" d="M280.53,240.53h316.9v73" transform="translate(-143.6 -187.84)"/><path class="cls-3" d="M549.6,353.9H225.8l-.6-76.5" transform="translate(-143.6 -187.84)"/><path class="cls-2" d="M577,367.53a3.33,3.33,0,0,1-2.5-.9,3.65,3.65,0,0,1,0-4.8,3.33,3.33,0,0,1,2.5-.9,3.49,3.49,0,0,1,2.5.9,3.65,3.65,0,0,1,0,4.8A3.33,3.33,0,0,1,577,367.53Z" transform="translate(-143.6 -187.84)"/><path class="cls-2" d="M589.25,354.93a10.57,10.57,0,0,0,1.5,6.1,5,5,0,0,0,4.3,2.2,9.31,9.31,0,0,0,5.5-2l2,3.6a12.46,12.46,0,0,1-8.2,2.7,10,10,0,0,1-7.8-3.1c-1.9-2.1-2.8-5.2-2.8-9.2s1.1-7.1,3.3-9.2a10.29,10.29,0,0,1,7.4-3.1,15.32,15.32,0,0,1,7.6,1.9v6l-4.3.3v-2.2a1.39,1.39,0,0,0-.9-1.5,4.77,4.77,0,0,0-2-.4C591.15,347,589.25,349.63,589.25,354.93Z" transform="translate(-143.6 -187.84)"/><path class="cls-2" d="M615.65,363.43c3.4,0,5-2.7,5-8.1a14.33,14.33,0,0,0-1.1-6.2,4,4,0,0,0-3.8-2.1,4.26,4.26,0,0,0-3.9,2,11.09,11.09,0,0,0-1.2,5.6c0,4.3.8,7.1,2.4,8.2A5.26,5.26,0,0,0,615.65,363.43Zm-10.6-8.3a14.87,14.87,0,0,1,1-5.9,9.67,9.67,0,0,1,2.7-3.9,11.54,11.54,0,0,1,7.3-2.5,11.26,11.26,0,0,1,4.7.9,8.84,8.84,0,0,1,3,2.1,11.74,11.74,0,0,1,1.9,3.4,16.88,16.88,0,0,1,.8,5.3c0,4.3-1,7.5-3.1,9.7a10.41,10.41,0,0,1-7.9,3.3,9.67,9.67,0,0,1-7.6-3.1C606,362.33,605.05,359.23,605.05,355.13Z" transform="translate(-143.6 -187.84)"/><path class="cls-2" d="M629.15,347.33v-3.7H637v3a8.11,8.11,0,0,1,7.1-3.7c3,0,5,1.2,6.1,3.7a8.06,8.06,0,0,1,7-3.7,6.62,6.62,0,0,1,5.1,2c1.2,1.3,1.8,3.4,1.8,6V363l2.6.1v3.7h-11v-3.5l1.5-.1a1.88,1.88,0,0,0,1-.4,1.61,1.61,0,0,0,.3-1.1v-9.6a9.08,9.08,0,0,0-.6-3.8q-.6-1.2-2.7-1.2a4.16,4.16,0,0,0-3.3,1.3,4.91,4.91,0,0,0-1.1,3.5V363l2.5.1v3.7h-10.7v-3.5l1.5-.1a1.88,1.88,0,0,0,1-.4,1.61,1.61,0,0,0,.3-1.1v-9.5a9.08,9.08,0,0,0-.6-3.8q-.6-1.2-2.7-1.2a4.16,4.16,0,0,0-3.3,1.3,5.24,5.24,0,0,0-1.1,3.3V363l2.5.1v3.7h-10.8v-3.5l1.5-.1a1.88,1.88,0,0,0,1-.4,1.61,1.61,0,0,0,.3-1.1h0v-12.8a1.61,1.61,0,0,0-.3-1.1,1.22,1.22,0,0,0-.9-.3Z" transform="translate(-143.6 -187.84)"/><path class="cls-4" d="M279.29,314.1c5.84,0,8.76-2.31,8.76-7,0-2.44-1.28-4.26-3.9-5.42a30.37,30.37,0,0,0-5.23-1.88,47.23,47.23,0,0,1-5.41-1.77,22.82,22.82,0,0,1-4.32-2.49c-2.86-2.13-4.32-5.42-4.32-9.92s1.52-8,4.62-10.53,7.12-3.83,12.11-3.83a32.66,32.66,0,0,1,13.93,3V285.2l-7.48.49v-4.26a3.16,3.16,0,0,0-.31-1.58c-.54-.91-2.25-1.4-5.17-1.4s-5.05.49-6.45,1.52a6,6,0,0,0-.3,8.82,9.34,9.34,0,0,0,3.47,1.95l4.86,1.58a33.51,33.51,0,0,1,4.63,1.77,23.1,23.1,0,0,1,4.2,2.61c3,2.19,4.44,5.6,4.44,10.16a13.13,13.13,0,0,1-4.93,10.83c-3.29,2.62-7.61,4-13,4a33.81,33.81,0,0,1-14.48-3V307.11l7.48-.49v4.44a3.16,3.16,0,0,0,.31,1.58c.18.37.79.67,1.76,1A15.89,15.89,0,0,0,279.29,314.1Z" transform="translate(-143.6 -187.84)"/><path class="cls-4" d="M304.05,312.52l11.74-34.07-4.62-.43v-5.9H327.9l14.9,42.17h.06l4.14.24v6.2H328.14v-5.9l2.8-.24a3,3,0,0,0,1.7-.61c.31-.3.31-.85.06-1.58l-1.52-4.5H314.09l-2.19,6.45,4.38.24v6.21H299.49v-5.91l2.43-.24A2.8,2.8,0,0,0,304.05,312.52Zm18.68-32.24-6.82,20.86h13.57l-6.57-20.8h-.18Z" transform="translate(-143.6 -187.84)"/><path class="cls-4" d="M365.07,314.1c5.84,0,8.76-2.31,8.76-7,0-2.44-1.28-4.26-3.89-5.42a31,31,0,0,0-5.23-1.88,47.46,47.46,0,0,1-5.42-1.77,22.82,22.82,0,0,1-4.32-2.49c-2.86-2.13-4.32-5.42-4.32-9.92s1.52-8,4.63-10.53,7.11-3.83,12.1-3.83a32.63,32.63,0,0,1,13.93,3V285.2l-7.48.49v-4.26a3.3,3.3,0,0,0-.3-1.58c-.55-.91-2.25-1.4-5.17-1.4s-5.05.49-6.45,1.52a5.51,5.51,0,0,0-2.07,4.75,5.57,5.57,0,0,0,1.76,4.07,9.34,9.34,0,0,0,3.47,1.95l4.87,1.58a33.85,33.85,0,0,1,4.62,1.77,23.1,23.1,0,0,1,4.2,2.61c3,2.19,4.44,5.6,4.44,10.16a13.11,13.11,0,0,1-4.93,10.83c-3.28,2.62-7.6,4-13,4a33.81,33.81,0,0,1-14.48-3V307.11l7.49-.49v4.44a3.3,3.3,0,0,0,.3,1.58c.18.37.79.67,1.77,1A15.78,15.78,0,0,0,365.07,314.1Z" transform="translate(-143.6 -187.84)"/><path class="cls-4" d="M401.57,312.52V279.36h-5.71c-1.1,0-1.71.73-1.71,2.25V285l-7.48-.49V272.12h38.21v12.41l-7.49.49v-3.41a3.21,3.21,0,0,0-.36-1.76c-.25-.36-.85-.49-1.77-.49h-5v34.93l5.78.24v6.2H395.43v-5.9l3.89-.24C400.84,314.41,401.57,313.74,401.57,312.52Z" transform="translate(-143.6 -187.84)"/><path class="cls-4" d="M463.21,320.73H428.47v-5.9l2.43-.24c1.4-.12,2.13-.85,2.13-2.07v-34l-4.14-.24v-6.21h33.46v12.11l-7.48.49v-2.92a3.23,3.23,0,0,0-.36-1.77c-.25-.36-.86-.48-1.77-.48H441.91V292h16.85v7.54H441.91v13.69h11.74c.86,0,1.46-.18,1.71-.55a3.33,3.33,0,0,0,.36-1.76v-3.65l7.49.48Z" transform="translate(-143.6 -187.84)"/><path class="cls-4" d="M498,279.85c-.55-.91-2.56-1.4-6-1.4-4.5,0-8,1.52-10.28,4.62s-3.53,7.49-3.53,13.33q0,18.06,13.51,18.07h1.95a10.65,10.65,0,0,0,3.22-.49,3.46,3.46,0,0,0,1.83-1,3.5,3.5,0,0,0,.3-1.58v-5.84l7.48.48v12.6c-3.77,2-8.64,3-14.48,3-7.48,0-13.14-2.07-17-6.27s-5.9-10.4-5.9-18.68a34.27,34.27,0,0,1,1.94-12,19.35,19.35,0,0,1,5.36-8A23.68,23.68,0,0,1,492,271.27a32.24,32.24,0,0,1,13.75,3v12.41l-7.42.49v-5.72A4.73,4.73,0,0,0,498,279.85Z" transform="translate(-143.6 -187.84)"/><path class="cls-4" d="M546.62,312.16V299.5H525.93v14.79l4.26.24v6.2h-17.7v-5.9l2.43-.24c1.4-.12,2.13-.85,2.13-2.07v-34l-4.14-.24v-6.21h17.71V278l-2.44.25a3.35,3.35,0,0,0-1.7.61,2.24,2.24,0,0,0-.49,1.76V291.9h20.69V278.45l-4.14-.24V272h17.7v5.9l-2.43.25a2.09,2.09,0,0,0-2.13,2.31v33.7l4.14.25v6.2H542.11v-5.9l2.44-.24a3,3,0,0,0,1.58-.61A2.27,2.27,0,0,0,546.62,312.16Z" transform="translate(-143.6 -187.84)"/></g></g></svg>