<svg xmlns:serif="http://www.serif.com/" xmlns="http://www.w3.org/2000/svg" xmlns:xlink="http://www.w3.org/1999/xlink" version="1.1" id="Layer_1" x="0px" y="0px" style="enable-background:new 0 0 841.9 595.3;" xml:space="preserve" viewBox="143.6 187.84 554.39 219.93">
<style type="text/css">
	.st0{fill-rule:evenodd;clip-rule:evenodd;fill:#FFFFFF;}
	.st1{fill:#FFFFFF;stroke:#FFFFFF;stroke-width:0.5813;stroke-linejoin:round;stroke-miterlimit:1.1626;}
	.st2{fill:none;stroke:#FFFFFF;stroke-width:6.4585;stroke-linejoin:round;stroke-miterlimit:10;}
	.st3{fill:#FFFFFF;stroke:#FFFFFF;stroke-width:0.58;stroke-linejoin:round;stroke-miterlimit:10;}
</style>
<g id="logo-with-box-white-" serif:id="logo with box(white)">
	<g transform="matrix(7.37222,0,0,6.14323,-695.357,-2078.4)">
		<path class="st0" d="M189,370c0-0.6-0.4-1.1-0.9-1.1h-73.4c-0.5,0-0.9,0.5-0.9,1.1v33.6c0,0.6,0.4,1.1,0.9,1.1h73.4    c0.5,0,0.9-0.5,0.9-1.1V370z M188.1,370h-73.4v33.6h73.4V370z"/>
	</g>
	<g id="logo-text" transform="matrix(1,0,0,1,0.933033,-11.6023)" serif:id="logo text">
		<g transform="matrix(1.26698,0,0,1.26698,-49.1273,-114.231)">
			<path class="st0" d="M250.3,269.9c0-2.8-2.3-5.1-5.1-5.1h-73.4c-2.8,0-5.1,2.3-5.1,5.1v33.6c0,2.8,2.3,5.1,5.1,5.1h73.4     c2.8,0,5.1-2.3,5.1-5.1V269.9z M245.2,269.9h-73.4v33.6h73.4V269.9z"/>
		</g>
		<g transform="matrix(1.42535,0,0,1.42535,620.336,21.5978)">
			<path class="st0" d="M40.5,225.4c0-2.5-2-4.5-4.5-4.5h-73.4c-2.5,0-4.5,2-4.5,4.5V259c0,2.5,2,4.5,4.5,4.5h73.4     c2.5,0,4.5-2,4.5-4.5V225.4z M35.9,225.4h-73.4V259h73.4V225.4z"/>
		</g>
		<g transform="matrix(1,0,0,1,-87.9693,244.861)">
			<path class="st1" d="M275.6,15.2v-21H272c-0.7,0-1.1,0.5-1.1,1.4v2.2l-4.7-0.3v-7.9h24.2v7.9l-4.7,0.3v-2.2     c0-0.5-0.1-0.9-0.2-1.1c-0.2-0.2-0.5-0.3-1.1-0.3h-3.1v22.1l3.7,0.1v3.9h-13v-3.7l2.5-0.1C275.2,16.4,275.6,15.9,275.6,15.2z"/>
			<path class="st1" d="M295.5,15.2V-7.4c0-0.5-0.1-0.8-0.3-1c-0.2-0.2-0.5-0.3-0.9-0.3l-1.6-0.1v-3.8h8.2v12.4     c1.6-2.3,3.9-3.4,6.8-3.4c2.3,0,4.2,0.7,5.4,2c1.3,1.3,1.9,3.4,1.9,6v12.1l2.6,0.1v3.7h-11v-3.5l1.5-0.1c0.5-0.1,0.8-0.2,1-0.4     c0.2-0.2,0.3-0.6,0.3-1.1V5.6c0-1.6-0.3-2.8-0.8-3.7c-0.5-0.9-1.5-1.3-3-1.3s-2.6,0.5-3.5,1.4S301,4,301,5.3v11.2l2.6,0.1v3.7     h-11v-3.5l1.5-0.1c0.5-0.1,0.8-0.2,1-0.4C295.4,16.1,295.5,15.7,295.5,15.2z"/>
			<path class="st1" d="M332-3.6c2.3,0,4.1,0.6,5.5,1.7c1.4,1.1,2,2.7,2,4.7c0,1.4-0.3,2.6-0.9,3.6c-0.6,1-1.3,1.8-2.2,2.4     c-0.9,0.6-1.9,1.1-3.1,1.4c-2.1,0.6-4.4,0.9-7,0.9c0.1,1.6,0.6,3,1.5,4c0.9,1,2.3,1.5,4.3,1.5c1.9,0,3.8-0.7,5.7-2l1.8,3.7     c-0.6,0.6-1.7,1.1-3.1,1.7c-1.5,0.6-3.1,0.9-5,0.9c-3.8,0-6.5-1-8.3-3.1c-1.8-2.1-2.6-4.9-2.6-8.6c0-3.6,1-6.7,3-9.2     C325.6-2.4,328.4-3.6,332-3.6z M329.9,7c1.1-0.2,2.2-0.7,3.1-1.4c1-0.7,1.4-1.5,1.4-2.5c0-1.9-0.9-2.8-2.8-2.8     c-1.7,0-3.1,0.7-4,2.1c-0.9,1.4-1.4,3-1.5,4.9C327.5,7.3,328.8,7.2,329.9,7z"/>
		</g>
		<g transform="matrix(1,0,0,1,-0.40436,0.630855)">
			<path class="st2" d="M280,251.5h316.9v73"/>
		</g>
		<g transform="matrix(-1,0,0,-1,1007.37,1042)">
			<path class="st2" d="M458.7,676.5h323.8l0.6,76.5"/>
		</g>
		<g transform="matrix(1,0,0,1,588.413,439.633)">
			<path class="st1" d="M-12.4-60.5c-1.1,0-1.9-0.3-2.5-0.9c-0.6-0.6-0.9-1.4-0.9-2.4c0-1,0.3-1.8,0.9-2.4c0.6-0.6,1.4-0.9,2.5-0.9     c1,0,1.9,0.3,2.5,0.9c0.6,0.6,0.9,1.4,0.9,2.4c0,1-0.3,1.8-0.9,2.4C-10.5-60.8-11.3-60.5-12.4-60.5z"/>
			<path class="st1" d="M-0.1-73.1c0,2.6,0.5,4.7,1.5,6.1c1,1.4,2.4,2.2,4.3,2.2c1.9,0,3.7-0.7,5.5-2l2,3.6C11-61.4,8.3-60.5,5-60.5     c-3.3,0-5.9-1-7.8-3.1c-1.9-2.1-2.8-5.2-2.8-9.2c0-4.1,1.1-7.1,3.3-9.2s4.6-3.1,7.4-3.1c2.7,0,5.3,0.6,7.6,1.9v6l-4.3,0.3v-2.2     c0-0.8-0.3-1.3-0.9-1.5C6.8-80.9,6.2-81,5.5-81C1.8-81-0.1-78.4-0.1-73.1z"/>
			<path class="st1" d="M26.3-64.6c3.4,0,5-2.7,5-8.1c0-2.7-0.4-4.8-1.1-6.2c-0.8-1.4-2-2.1-3.8-2.1c-1.8,0-3.1,0.7-3.9,2     c-0.8,1.4-1.2,3.2-1.2,5.6c0,4.3,0.8,7.1,2.4,8.2C24.4-64.8,25.3-64.6,26.3-64.6z M15.7-72.9c0-2.3,0.3-4.3,1-5.9     c0.7-1.7,1.6-3,2.7-3.9c2.2-1.7,4.6-2.5,7.3-2.5c1.8,0,3.4,0.3,4.7,0.9c1.3,0.6,2.3,1.3,3,2.1c0.7,0.8,1.3,1.9,1.9,3.4     c0.5,1.5,0.8,3.3,0.8,5.3c0,4.3-1,7.5-3.1,9.7c-2.1,2.2-4.7,3.3-7.9,3.3c-3.2,0-5.7-1-7.6-3.1C16.6-65.7,15.7-68.8,15.7-72.9z"/>
			<path class="st1" d="M39.8-80.7v-3.7h7.8v3c1.7-2.5,4.1-3.7,7.1-3.7c3,0,5,1.2,6.1,3.7c1.7-2.5,4.1-3.7,7-3.7     c2.2,0,3.9,0.7,5.1,2c1.2,1.3,1.8,3.4,1.8,6V-65l2.6,0.1v3.7h-11v-3.5l1.5-0.1c0.5-0.1,0.8-0.2,1-0.4c0.2-0.2,0.3-0.6,0.3-1.1     v-9.6c0-1.7-0.2-3-0.6-3.8c-0.4-0.8-1.3-1.2-2.7-1.2c-1.4,0-2.5,0.4-3.3,1.3c-0.8,0.9-1.1,2-1.1,3.5V-65l2.5,0.1v3.7H53.2v-3.5     l1.5-0.1c0.5-0.1,0.8-0.2,1-0.4c0.2-0.2,0.3-0.6,0.3-1.1v-9.5c0-1.7-0.2-3-0.6-3.8c-0.4-0.8-1.3-1.2-2.7-1.2     c-1.4,0-2.5,0.4-3.3,1.3c-0.7,0.9-1.1,2-1.1,3.3V-65l2.5,0.1v3.7H40v-3.5l1.5-0.1c0.5-0.1,0.8-0.2,1-0.4c0.2-0.2,0.3-0.6,0.3-1.1     h0v-12.8c0-0.5-0.1-0.9-0.3-1.1c-0.2-0.2-0.5-0.3-0.9-0.3L39.8-80.7z"/>
		</g>
		<g transform="matrix(0.608398,0,0,0.608398,43.0251,310.191)">
			<path class="st3" d="M386.8,25.5c9.6,0,14.4-3.8,14.4-11.5c0-4-2.1-7-6.4-8.9C392.6,4,389.7,3,386.2,2c-3.6-1-6.5-1.9-8.9-2.9     c-2.4-1-4.7-2.4-7.1-4.1c-4.7-3.5-7.1-8.9-7.1-16.3c0-7.3,2.5-13.1,7.6-17.3c5.1-4.2,11.7-6.3,19.9-6.3c8.2,0,15.8,1.6,22.9,4.9     v18l-12.3,0.8v-7c0-1.2-0.2-2.1-0.5-2.6c-0.9-1.5-3.7-2.3-8.5-2.3c-4.8,0-8.3,0.8-10.6,2.5c-2.3,1.7-3.4,4.3-3.4,7.8     c0,2.6,1,4.8,2.9,6.7c1.3,1.3,3.2,2.3,5.7,3.2c2.5,0.8,5.2,1.7,8,2.6c2.8,0.9,5.4,1.8,7.6,2.9c2.2,1,4.5,2.5,6.9,4.3     c4.9,3.6,7.3,9.2,7.3,16.7s-2.7,13.5-8.1,17.8c-5.4,4.3-12.5,6.5-21.4,6.5c-8.8,0-16.8-1.6-23.8-4.9V14l12.3-0.8v7.3     c0,1.2,0.2,2.1,0.5,2.6c0.3,0.6,1.3,1.1,2.9,1.6C380.7,25.3,383.3,25.5,386.8,25.5z"/>
			<path class="st3" d="M427.5,22.9l19.3-56l-7.6-0.7v-9.7h27.5l24.5,69.3h0.1l6.8,0.4v10.2h-31v-9.7l4.6-0.4c1.4-0.2,2.3-0.5,2.8-1     c0.5-0.5,0.5-1.4,0.1-2.6l-2.5-7.4h-28.1l-3.6,10.6l7.2,0.4v10.2H420v-9.7l4-0.4C425.6,26.1,426.8,25,427.5,22.9z M458.2-30.1     L447,4.2h22.3l-10.8-34.2H458.2z"/>
			<path class="st3" d="M527.8,25.5c9.6,0,14.4-3.8,14.4-11.5c0-4-2.1-7-6.4-8.9C533.6,4,530.7,3,527.2,2c-3.6-1-6.5-1.9-8.9-2.9     c-2.4-1-4.7-2.4-7.1-4.1c-4.7-3.5-7.1-8.9-7.1-16.3c0-7.3,2.5-13.1,7.6-17.3c5.1-4.2,11.7-6.3,19.9-6.3c8.2,0,15.8,1.6,22.9,4.9     v18l-12.3,0.8v-7c0-1.2-0.2-2.1-0.5-2.6c-0.9-1.5-3.7-2.3-8.5-2.3s-8.3,0.8-10.6,2.5c-2.3,1.7-3.4,4.3-3.4,7.8     c0,2.6,1,4.8,2.9,6.7c1.3,1.3,3.2,2.3,5.7,3.2c2.5,0.8,5.2,1.7,8,2.6c2.8,0.9,5.4,1.8,7.6,2.9c2.2,1,4.5,2.5,6.9,4.3     c4.9,3.6,7.3,9.2,7.3,16.7s-2.7,13.5-8.1,17.8c-5.4,4.3-12.5,6.5-21.4,6.5c-8.8,0-16.8-1.6-23.8-4.9V14l12.3-0.8v7.3     c0,1.2,0.2,2.1,0.5,2.6c0.3,0.6,1.3,1.1,2.9,1.6C521.7,25.3,524.3,25.5,527.8,25.5z"/>
			<path class="st3" d="M587.8,22.9v-54.5h-9.4c-1.8,0-2.8,1.2-2.8,3.7v5.6l-12.3-0.8v-20.4h62.8v20.4l-12.3,0.8v-5.6     c0-1.4-0.2-2.3-0.6-2.9c-0.4-0.6-1.4-0.8-2.9-0.8h-8.2v57.4l9.5,0.4v10.2h-33.9v-9.7l6.4-0.4C586.6,26,587.8,24.9,587.8,22.9z"/>
			<path class="st3" d="M689.1,36.4h-57.1v-9.7l4-0.4c2.3-0.2,3.5-1.4,3.5-3.4v-55.9l-6.8-0.4v-10.2h55v19.9l-12.3,0.8v-4.8     c0-1.4-0.2-2.3-0.6-2.9c-0.4-0.6-1.4-0.8-2.9-0.8h-17.8v20.5h27.7V1.5h-27.7V24h19.3c1.4,0,2.4-0.3,2.8-0.9     c0.4-0.6,0.6-1.6,0.6-2.9v-6l12.3,0.8V36.4z"/>
			<path class="st3" d="M746.3-30.8c-0.9-1.5-4.2-2.3-9.8-2.3c-7.4,0-13.1,2.5-16.9,7.6c-3.8,5-5.8,12.3-5.8,21.9     c0,19.8,7.4,29.7,22.2,29.7h3.2c1.9,0,3.7-0.3,5.3-0.8c1.7-0.5,2.7-1.1,3-1.6c0.3-0.6,0.5-1.4,0.5-2.6v-9.6l12.3,0.8V33     c-6.2,3.3-14.2,4.9-23.8,4.9c-12.3,0-21.6-3.4-28-10.3c-6.4-6.9-9.7-17.1-9.7-30.7c0-7.5,1.1-14.1,3.2-19.7     c2.2-5.6,5.1-10,8.8-13.1c7.2-6,15.8-9,25.7-9c8,0,15.5,1.6,22.6,4.9v20.4l-12.2,0.8v-9.4C746.8-29.3,746.6-30.2,746.3-30.8z"/>
			<path class="st3" d="M826.2,22.3V1.5h-34v24.3l7,0.4v10.2h-29.1v-9.7l4-0.4c2.3-0.2,3.5-1.4,3.5-3.4v-55.9l-6.8-0.4v-10.2h29.1     v9.7l-4,0.4c-1.3,0.2-2.2,0.5-2.8,1c-0.6,0.5-0.8,1.5-0.8,2.9v18.6h34v-22.1l-6.8-0.4v-10.2h29.1v9.7l-4,0.4     c-2.3,0.2-3.5,1.5-3.5,3.8v55.4l6.8,0.4v10.2h-29.1v-9.7l4-0.4c1.2-0.2,2.1-0.5,2.6-1C825.9,24.7,826.2,23.7,826.2,22.3z"/>
		</g>
	</g>
</g>
</svg>